<?xml version="1.0" encoding="utf-8" standalone="no"?>
<!DOCTYPE svg PUBLIC "-//W3C//DTD SVG 1.1//EN"
  "http://www.w3.org/Graphics/SVG/1.1/DTD/svg11.dtd">
<!-- Created with matplotlib (https://matplotlib.org/) -->
<svg height="297.190125pt" version="1.1" viewBox="0 0 318.157312 297.190125" width="318.157312pt" xmlns="http://www.w3.org/2000/svg" xmlns:xlink="http://www.w3.org/1999/xlink">
 <defs>
  <style type="text/css">
*{stroke-linecap:butt;stroke-linejoin:round;}
  </style>
 </defs>
 <g id="figure_1">
  <g id="patch_1">
   <path d="M 0 297.190125 
L 318.157312 297.190125 
L 318.157312 0 
L 0 0 
z
" style="fill:#ffffff;"/>
  </g>
  <g id="axes_1">
   <g id="patch_2">
    <path d="M 44.845313 273.312 
L 310.957312 273.312 
L 310.957312 7.2 
L 44.845313 7.2 
z
" style="fill:#ffffff;"/>
   </g>
   <g id="matplotlib.axis_1">
    <g id="xtick_1">
     <g id="line2d_1">
      <defs>
       <path d="M 0 0 
L 0 3.5 
" id="m6ee22cc97b" style="stroke:#000000;stroke-width:0.8;"/>
      </defs>
      <g>
       <use style="stroke:#000000;stroke-width:0.8;" x="56.941312" xlink:href="#m6ee22cc97b" y="273.312"/>
      </g>
     </g>
     <g id="text_1">
      <!-- −1.0 -->
      <defs>
       <path d="M 10.59375 35.5 
L 73.1875 35.5 
L 73.1875 27.203125 
L 10.59375 27.203125 
z
" id="DejaVuSans-8722"/>
       <path d="M 12.40625 8.296875 
L 28.515625 8.296875 
L 28.515625 63.921875 
L 10.984375 60.40625 
L 10.984375 69.390625 
L 28.421875 72.90625 
L 38.28125 72.90625 
L 38.28125 8.296875 
L 54.390625 8.296875 
L 54.390625 0 
L 12.40625 0 
z
" id="DejaVuSans-49"/>
       <path d="M 10.6875 12.40625 
L 21 12.40625 
L 21 0 
L 10.6875 0 
z
" id="DejaVuSans-46"/>
       <path d="M 31.78125 66.40625 
Q 24.171875 66.40625 20.328125 58.90625 
Q 16.5 51.421875 16.5 36.375 
Q 16.5 21.390625 20.328125 13.890625 
Q 24.171875 6.390625 31.78125 6.390625 
Q 39.453125 6.390625 43.28125 13.890625 
Q 47.125 21.390625 47.125 36.375 
Q 47.125 51.421875 43.28125 58.90625 
Q 39.453125 66.40625 31.78125 66.40625 
z
M 31.78125 74.21875 
Q 44.046875 74.21875 50.515625 64.515625 
Q 56.984375 54.828125 56.984375 36.375 
Q 56.984375 17.96875 50.515625 8.265625 
Q 44.046875 -1.421875 31.78125 -1.421875 
Q 19.53125 -1.421875 13.0625 8.265625 
Q 6.59375 17.96875 6.59375 36.375 
Q 6.59375 54.828125 13.0625 64.515625 
Q 19.53125 74.21875 31.78125 74.21875 
z
" id="DejaVuSans-48"/>
      </defs>
      <g transform="translate(44.799906 287.910437)scale(0.1 -0.1)">
       <use xlink:href="#DejaVuSans-8722"/>
       <use x="83.789062" xlink:href="#DejaVuSans-49"/>
       <use x="147.412109" xlink:href="#DejaVuSans-46"/>
       <use x="179.199219" xlink:href="#DejaVuSans-48"/>
      </g>
     </g>
    </g>
    <g id="xtick_2">
     <g id="line2d_2">
      <g>
       <use style="stroke:#000000;stroke-width:0.8;" x="117.421312" xlink:href="#m6ee22cc97b" y="273.312"/>
      </g>
     </g>
     <g id="text_2">
      <!-- −0.5 -->
      <defs>
       <path d="M 10.796875 72.90625 
L 49.515625 72.90625 
L 49.515625 64.59375 
L 19.828125 64.59375 
L 19.828125 46.734375 
Q 21.96875 47.46875 24.109375 47.828125 
Q 26.265625 48.1875 28.421875 48.1875 
Q 40.625 48.1875 47.75 41.5 
Q 54.890625 34.8125 54.890625 23.390625 
Q 54.890625 11.625 47.5625 5.09375 
Q 40.234375 -1.421875 26.90625 -1.421875 
Q 22.3125 -1.421875 17.546875 -0.640625 
Q 12.796875 0.140625 7.71875 1.703125 
L 7.71875 11.625 
Q 12.109375 9.234375 16.796875 8.0625 
Q 21.484375 6.890625 26.703125 6.890625 
Q 35.15625 6.890625 40.078125 11.328125 
Q 45.015625 15.765625 45.015625 23.390625 
Q 45.015625 31 40.078125 35.4375 
Q 35.15625 39.890625 26.703125 39.890625 
Q 22.75 39.890625 18.8125 39.015625 
Q 14.890625 38.140625 10.796875 36.28125 
z
" id="DejaVuSans-53"/>
      </defs>
      <g transform="translate(105.279906 287.910437)scale(0.1 -0.1)">
       <use xlink:href="#DejaVuSans-8722"/>
       <use x="83.789062" xlink:href="#DejaVuSans-48"/>
       <use x="147.412109" xlink:href="#DejaVuSans-46"/>
       <use x="179.199219" xlink:href="#DejaVuSans-53"/>
      </g>
     </g>
    </g>
    <g id="xtick_3">
     <g id="line2d_3">
      <g>
       <use style="stroke:#000000;stroke-width:0.8;" x="177.901312" xlink:href="#m6ee22cc97b" y="273.312"/>
      </g>
     </g>
     <g id="text_3">
      <!-- 0.0 -->
      <g transform="translate(169.94975 287.910437)scale(0.1 -0.1)">
       <use xlink:href="#DejaVuSans-48"/>
       <use x="63.623047" xlink:href="#DejaVuSans-46"/>
       <use x="95.410156" xlink:href="#DejaVuSans-48"/>
      </g>
     </g>
    </g>
    <g id="xtick_4">
     <g id="line2d_4">
      <g>
       <use style="stroke:#000000;stroke-width:0.8;" x="238.381312" xlink:href="#m6ee22cc97b" y="273.312"/>
      </g>
     </g>
     <g id="text_4">
      <!-- 0.5 -->
      <g transform="translate(230.42975 287.910437)scale(0.1 -0.1)">
       <use xlink:href="#DejaVuSans-48"/>
       <use x="63.623047" xlink:href="#DejaVuSans-46"/>
       <use x="95.410156" xlink:href="#DejaVuSans-53"/>
      </g>
     </g>
    </g>
    <g id="xtick_5">
     <g id="line2d_5">
      <g>
       <use style="stroke:#000000;stroke-width:0.8;" x="298.861312" xlink:href="#m6ee22cc97b" y="273.312"/>
      </g>
     </g>
     <g id="text_5">
      <!-- 1.0 -->
      <g transform="translate(290.90975 287.910437)scale(0.1 -0.1)">
       <use xlink:href="#DejaVuSans-49"/>
       <use x="63.623047" xlink:href="#DejaVuSans-46"/>
       <use x="95.410156" xlink:href="#DejaVuSans-48"/>
      </g>
     </g>
    </g>
   </g>
   <g id="matplotlib.axis_2">
    <g id="ytick_1">
     <g id="line2d_6">
      <defs>
       <path d="M 0 0 
L -3.5 0 
" id="m53a7941d91" style="stroke:#000000;stroke-width:0.8;"/>
      </defs>
      <g>
       <use style="stroke:#000000;stroke-width:0.8;" x="44.845313" xlink:href="#m53a7941d91" y="261.216"/>
      </g>
     </g>
     <g id="text_6">
      <!-- −1.00 -->
      <g transform="translate(7.2 265.015219)scale(0.1 -0.1)">
       <use xlink:href="#DejaVuSans-8722"/>
       <use x="83.789062" xlink:href="#DejaVuSans-49"/>
       <use x="147.412109" xlink:href="#DejaVuSans-46"/>
       <use x="179.199219" xlink:href="#DejaVuSans-48"/>
       <use x="242.822266" xlink:href="#DejaVuSans-48"/>
      </g>
     </g>
    </g>
    <g id="ytick_2">
     <g id="line2d_7">
      <g>
       <use style="stroke:#000000;stroke-width:0.8;" x="44.845313" xlink:href="#m53a7941d91" y="230.976"/>
      </g>
     </g>
     <g id="text_7">
      <!-- −0.75 -->
      <defs>
       <path d="M 8.203125 72.90625 
L 55.078125 72.90625 
L 55.078125 68.703125 
L 28.609375 0 
L 18.3125 0 
L 43.21875 64.59375 
L 8.203125 64.59375 
z
" id="DejaVuSans-55"/>
      </defs>
      <g transform="translate(7.2 234.775219)scale(0.1 -0.1)">
       <use xlink:href="#DejaVuSans-8722"/>
       <use x="83.789062" xlink:href="#DejaVuSans-48"/>
       <use x="147.412109" xlink:href="#DejaVuSans-46"/>
       <use x="179.199219" xlink:href="#DejaVuSans-55"/>
       <use x="242.822266" xlink:href="#DejaVuSans-53"/>
      </g>
     </g>
    </g>
    <g id="ytick_3">
     <g id="line2d_8">
      <g>
       <use style="stroke:#000000;stroke-width:0.8;" x="44.845313" xlink:href="#m53a7941d91" y="200.736"/>
      </g>
     </g>
     <g id="text_8">
      <!-- −0.50 -->
      <g transform="translate(7.2 204.535219)scale(0.1 -0.1)">
       <use xlink:href="#DejaVuSans-8722"/>
       <use x="83.789062" xlink:href="#DejaVuSans-48"/>
       <use x="147.412109" xlink:href="#DejaVuSans-46"/>
       <use x="179.199219" xlink:href="#DejaVuSans-53"/>
       <use x="242.822266" xlink:href="#DejaVuSans-48"/>
      </g>
     </g>
    </g>
    <g id="ytick_4">
     <g id="line2d_9">
      <g>
       <use style="stroke:#000000;stroke-width:0.8;" x="44.845313" xlink:href="#m53a7941d91" y="170.496"/>
      </g>
     </g>
     <g id="text_9">
      <!-- −0.25 -->
      <defs>
       <path d="M 19.1875 8.296875 
L 53.609375 8.296875 
L 53.609375 0 
L 7.328125 0 
L 7.328125 8.296875 
Q 12.9375 14.109375 22.625 23.890625 
Q 32.328125 33.6875 34.8125 36.53125 
Q 39.546875 41.84375 41.421875 45.53125 
Q 43.3125 49.21875 43.3125 52.78125 
Q 43.3125 58.59375 39.234375 62.25 
Q 35.15625 65.921875 28.609375 65.921875 
Q 23.96875 65.921875 18.8125 64.3125 
Q 13.671875 62.703125 7.8125 59.421875 
L 7.8125 69.390625 
Q 13.765625 71.78125 18.9375 73 
Q 24.125 74.21875 28.421875 74.21875 
Q 39.75 74.21875 46.484375 68.546875 
Q 53.21875 62.890625 53.21875 53.421875 
Q 53.21875 48.921875 51.53125 44.890625 
Q 49.859375 40.875 45.40625 35.40625 
Q 44.1875 33.984375 37.640625 27.21875 
Q 31.109375 20.453125 19.1875 8.296875 
z
" id="DejaVuSans-50"/>
      </defs>
      <g transform="translate(7.2 174.295219)scale(0.1 -0.1)">
       <use xlink:href="#DejaVuSans-8722"/>
       <use x="83.789062" xlink:href="#DejaVuSans-48"/>
       <use x="147.412109" xlink:href="#DejaVuSans-46"/>
       <use x="179.199219" xlink:href="#DejaVuSans-50"/>
       <use x="242.822266" xlink:href="#DejaVuSans-53"/>
      </g>
     </g>
    </g>
    <g id="ytick_5">
     <g id="line2d_10">
      <g>
       <use style="stroke:#000000;stroke-width:0.8;" x="44.845313" xlink:href="#m53a7941d91" y="140.256"/>
      </g>
     </g>
     <g id="text_10">
      <!-- 0.00 -->
      <g transform="translate(15.579688 144.055219)scale(0.1 -0.1)">
       <use xlink:href="#DejaVuSans-48"/>
       <use x="63.623047" xlink:href="#DejaVuSans-46"/>
       <use x="95.410156" xlink:href="#DejaVuSans-48"/>
       <use x="159.033203" xlink:href="#DejaVuSans-48"/>
      </g>
     </g>
    </g>
    <g id="ytick_6">
     <g id="line2d_11">
      <g>
       <use style="stroke:#000000;stroke-width:0.8;" x="44.845313" xlink:href="#m53a7941d91" y="110.016"/>
      </g>
     </g>
     <g id="text_11">
      <!-- 0.25 -->
      <g transform="translate(15.579688 113.815219)scale(0.1 -0.1)">
       <use xlink:href="#DejaVuSans-48"/>
       <use x="63.623047" xlink:href="#DejaVuSans-46"/>
       <use x="95.410156" xlink:href="#DejaVuSans-50"/>
       <use x="159.033203" xlink:href="#DejaVuSans-53"/>
      </g>
     </g>
    </g>
    <g id="ytick_7">
     <g id="line2d_12">
      <g>
       <use style="stroke:#000000;stroke-width:0.8;" x="44.845313" xlink:href="#m53a7941d91" y="79.776"/>
      </g>
     </g>
     <g id="text_12">
      <!-- 0.50 -->
      <g transform="translate(15.579688 83.575219)scale(0.1 -0.1)">
       <use xlink:href="#DejaVuSans-48"/>
       <use x="63.623047" xlink:href="#DejaVuSans-46"/>
       <use x="95.410156" xlink:href="#DejaVuSans-53"/>
       <use x="159.033203" xlink:href="#DejaVuSans-48"/>
      </g>
     </g>
    </g>
    <g id="ytick_8">
     <g id="line2d_13">
      <g>
       <use style="stroke:#000000;stroke-width:0.8;" x="44.845313" xlink:href="#m53a7941d91" y="49.536"/>
      </g>
     </g>
     <g id="text_13">
      <!-- 0.75 -->
      <g transform="translate(15.579688 53.335219)scale(0.1 -0.1)">
       <use xlink:href="#DejaVuSans-48"/>
       <use x="63.623047" xlink:href="#DejaVuSans-46"/>
       <use x="95.410156" xlink:href="#DejaVuSans-55"/>
       <use x="159.033203" xlink:href="#DejaVuSans-53"/>
      </g>
     </g>
    </g>
    <g id="ytick_9">
     <g id="line2d_14">
      <g>
       <use style="stroke:#000000;stroke-width:0.8;" x="44.845313" xlink:href="#m53a7941d91" y="19.296"/>
      </g>
     </g>
     <g id="text_14">
      <!-- 1.00 -->
      <g transform="translate(15.579688 23.095219)scale(0.1 -0.1)">
       <use xlink:href="#DejaVuSans-49"/>
       <use x="63.623047" xlink:href="#DejaVuSans-46"/>
       <use x="95.410156" xlink:href="#DejaVuSans-48"/>
       <use x="159.033203" xlink:href="#DejaVuSans-48"/>
      </g>
     </g>
    </g>
   </g>
   <g id="line2d_15">
    <path clip-path="url(#p37bbe9ad00)" d="M 56.941312 140.256 
L 121.453312 140.146435 
L 135.901312 139.903335 
L 144.637312 139.555699 
L 151.021312 139.088926 
L 155.725312 138.529422 
L 159.421312 137.868924 
L 162.445312 137.093244 
L 164.797312 136.261407 
L 166.813312 135.306496 
L 168.493312 134.257372 
L 169.837312 133.175997 
L 171.181312 131.779607 
L 172.189312 130.432175 
L 173.197312 128.70269 
L 174.205312 126.386618 
L 174.877312 124.330993 
L 175.549312 121.611756 
L 176.221312 117.759014 
L 176.893312 111.566622 
L 177.229312 106.468929 
L 177.565312 97.640901 
L 177.901312 19.414082 
L 178.237312 97.640901 
L 178.573312 106.468929 
L 179.245312 115.095961 
L 179.917312 119.873872 
L 180.589312 123.075346 
L 181.261312 125.423995 
L 182.269312 128.010007 
L 183.277312 129.905773 
L 184.285312 131.364554 
L 185.629312 132.861246 
L 186.973312 134.010627 
L 188.653312 135.118253 
L 190.669312 136.120387 
L 193.021312 136.988907 
L 195.709312 137.718694 
L 199.069312 138.373212 
L 203.101312 138.916432 
L 208.141312 139.365818 
L 214.861312 139.732292 
L 224.269312 140.006339 
L 238.717312 140.180736 
L 266.605312 140.252252 
L 298.861312 140.256 
L 298.861312 140.256 
" style="fill:none;stroke:#0000ff;stroke-linecap:square;stroke-width:1.5;"/>
   </g>
   <g id="line2d_16">
    <path clip-path="url(#p37bbe9ad00)" d="M 56.941312 140.256 
L 121.453312 140.365565 
L 135.901312 140.608665 
L 144.637312 140.956301 
L 151.021312 141.423074 
L 155.725312 141.982578 
L 159.421312 142.643076 
L 162.445312 143.418756 
L 164.797312 144.250593 
L 166.813312 145.205504 
L 168.493312 146.254628 
L 169.837312 147.336003 
L 171.181312 148.732393 
L 172.189312 150.079825 
L 173.197312 151.80931 
L 174.205312 154.125382 
L 174.877312 156.181007 
L 175.549312 158.900244 
L 176.221312 162.752986 
L 176.893312 168.945378 
L 177.229312 174.043071 
L 177.565312 182.871099 
L 177.901312 261.097918 
L 178.237312 182.871099 
L 178.573312 174.043071 
L 179.245312 165.416039 
L 179.917312 160.638128 
L 180.589312 157.436654 
L 181.261312 155.088005 
L 182.269312 152.501993 
L 183.277312 150.606227 
L 184.285312 149.147446 
L 185.629312 147.650754 
L 186.973312 146.501373 
L 188.653312 145.393747 
L 190.669312 144.391613 
L 193.021312 143.523093 
L 195.709312 142.793306 
L 199.069312 142.138788 
L 203.101312 141.595568 
L 208.141312 141.146182 
L 214.861312 140.779708 
L 224.269312 140.505661 
L 238.717312 140.331264 
L 266.605312 140.259748 
L 298.861312 140.256 
L 298.861312 140.256 
" style="fill:none;stroke:#0000ff;stroke-linecap:square;stroke-width:1.5;"/>
   </g>
   <g id="line2d_17">
    <path clip-path="url(#p37bbe9ad00)" d="M 56.941312 140.256 
L 63.997312 140.149985 
L 71.053312 139.818483 
L 77.773312 139.272365 
L 84.157312 138.524057 
L 90.205312 137.587457 
L 95.917312 136.478108 
L 101.293312 135.213361 
L 106.333312 133.812554 
L 111.373312 132.180674 
L 116.077312 130.425532 
L 120.445312 128.571854 
L 124.813312 126.47683 
L 128.845312 124.302504 
L 132.877312 121.867434 
L 136.573312 119.375707 
L 140.269312 116.600529 
L 143.629312 113.795753 
L 146.989312 110.680615 
L 150.013312 107.568793 
L 153.037312 104.114258 
L 155.725312 100.703956 
L 158.413312 96.911419 
L 160.765312 93.21538 
L 163.117312 89.087946 
L 165.133312 85.12615 
L 167.149312 80.670609 
L 168.829312 76.476521 
L 170.509312 71.708225 
L 172.189312 66.154848 
L 173.533312 60.899873 
L 174.541312 56.256 
L 175.549312 50.678132 
L 176.221312 46.126545 
L 176.893312 40.372174 
L 177.565312 31.710304 
L 177.901312 19.296014 
L 178.237312 31.710304 
L 178.909312 40.372174 
L 179.581312 46.126545 
L 180.589312 52.671304 
L 181.597312 57.887973 
L 182.941312 63.637713 
L 184.285312 68.489285 
L 185.965312 73.695475 
L 187.645312 78.214486 
L 189.661312 82.967813 
L 191.677312 87.161778 
L 194.029312 91.504694 
L 196.381312 95.374782 
L 199.069312 99.330397 
L 201.757312 102.875967 
L 204.445312 106.079177 
L 207.469312 109.336449 
L 210.493312 112.279926 
L 213.853312 115.234165 
L 217.213312 117.899619 
L 220.909312 120.541217 
L 224.605312 122.915862 
L 228.637312 125.238353 
L 232.669312 127.312978 
L 237.037312 129.311891 
L 241.741312 131.206805 
L 246.445312 132.86276 
L 251.485312 134.399261 
L 256.861312 135.794452 
L 262.237312 136.962798 
L 267.949312 137.979465 
L 273.997312 138.827198 
L 280.381312 139.490478 
L 287.101312 139.955366 
L 294.157312 140.209355 
L 298.861312 140.256 
L 298.861312 140.256 
" style="fill:none;stroke:#000000;stroke-linecap:square;stroke-width:1.5;"/>
   </g>
   <g id="line2d_18">
    <path clip-path="url(#p37bbe9ad00)" d="M 56.941312 140.256 
L 63.997312 140.362015 
L 71.053312 140.693517 
L 77.773312 141.239635 
L 84.157312 141.987943 
L 90.205312 142.924543 
L 95.917312 144.033892 
L 101.293312 145.298639 
L 106.333312 146.699446 
L 111.373312 148.331326 
L 116.077312 150.086468 
L 120.445312 151.940146 
L 124.813312 154.03517 
L 128.845312 156.209496 
L 132.877312 158.644566 
L 136.573312 161.136293 
L 140.269312 163.911471 
L 143.629312 166.716247 
L 146.989312 169.831385 
L 150.013312 172.943207 
L 153.037312 176.397742 
L 155.725312 179.808044 
L 158.413312 183.600581 
L 160.765312 187.29662 
L 163.117312 191.424054 
L 165.133312 195.38585 
L 167.149312 199.841391 
L 168.829312 204.035479 
L 170.509312 208.803775 
L 172.189312 214.357152 
L 173.533312 219.612127 
L 174.541312 224.256 
L 175.549312 229.833868 
L 176.221312 234.385455 
L 176.893312 240.139826 
L 177.565312 248.801696 
L 177.901312 261.215986 
L 178.237312 248.801696 
L 178.909312 240.139826 
L 179.581312 234.385455 
L 180.589312 227.840696 
L 181.597312 222.624027 
L 182.941312 216.874287 
L 184.285312 212.022715 
L 185.965312 206.816525 
L 187.645312 202.297514 
L 189.661312 197.544187 
L 191.677312 193.350222 
L 194.029312 189.007306 
L 196.381312 185.137218 
L 199.069312 181.181603 
L 201.757312 177.636033 
L 204.445312 174.432823 
L 207.469312 171.175551 
L 210.493312 168.232074 
L 213.853312 165.277835 
L 217.213312 162.612381 
L 220.909312 159.970783 
L 224.605312 157.596138 
L 228.637312 155.273647 
L 232.669312 153.199022 
L 237.037312 151.200109 
L 241.741312 149.305195 
L 246.445312 147.64924 
L 251.485312 146.112739 
L 256.861312 144.717548 
L 262.237312 143.549202 
L 267.949312 142.532535 
L 273.997312 141.684802 
L 280.381312 141.021522 
L 287.101312 140.556634 
L 294.157312 140.302645 
L 298.861312 140.256 
L 298.861312 140.256 
" style="fill:none;stroke:#000000;stroke-linecap:square;stroke-width:1.5;"/>
   </g>
   <g id="line2d_19">
    <path clip-path="url(#p37bbe9ad00)" d="M 56.941312 140.256 
L 177.901312 19.296 
L 298.861312 140.256 
L 298.861312 140.256 
" style="fill:none;stroke:#bf00bf;stroke-linecap:square;stroke-width:1.5;"/>
   </g>
   <g id="line2d_20">
    <path clip-path="url(#p37bbe9ad00)" d="M 56.941312 140.256 
L 177.901312 261.216 
L 298.861312 140.256 
L 298.861312 140.256 
" style="fill:none;stroke:#bf00bf;stroke-linecap:square;stroke-width:1.5;"/>
   </g>
   <g id="line2d_21">
    <path clip-path="url(#p37bbe9ad00)" d="M 56.941312 140.256 
L 57.277312 131.246437 
L 57.949312 124.672698 
L 58.957312 118.264036 
L 59.965312 113.3781 
L 61.309312 108.04378 
L 62.989312 102.486252 
L 64.669312 97.713835 
L 66.685312 92.692117 
L 68.701312 88.230222 
L 71.053312 83.55656 
L 73.741312 78.757902 
L 76.429312 74.417145 
L 79.453312 69.975755 
L 82.477312 65.921743 
L 85.837312 61.798741 
L 89.197312 58.019013 
L 92.893312 54.203914 
L 96.589312 50.703333 
L 100.621312 47.20159 
L 104.653312 43.995665 
L 109.021312 40.823273 
L 113.389312 37.935311 
L 117.757312 35.308295 
L 122.461312 32.749126 
L 127.165312 30.450809 
L 131.869312 28.397265 
L 136.573312 26.575228 
L 141.613312 24.867514 
L 146.653312 23.401885 
L 151.693312 22.169327 
L 156.733312 21.162602 
L 161.773312 20.376022 
L 166.813312 19.805272 
L 171.853312 19.447295 
L 176.893312 19.3002 
L 181.933312 19.363219 
L 186.973312 19.63668 
L 192.013312 20.12202 
L 197.053312 20.821824 
L 202.093312 21.739888 
L 207.133312 22.881336 
L 212.173312 24.25276 
L 217.213312 25.862433 
L 221.917312 27.588732 
L 226.621312 29.541578 
L 231.325312 31.733201 
L 236.029312 34.1784 
L 240.397312 36.691665 
L 244.765312 39.45656 
L 249.133312 42.494434 
L 253.165312 45.563593 
L 257.197312 48.913425 
L 260.893312 52.257991 
L 264.589312 55.896577 
L 268.285312 59.869097 
L 271.645312 63.813969 
L 274.669312 67.68 
L 277.693312 71.897545 
L 280.381312 75.997373 
L 283.069312 80.498043 
L 285.421312 84.84146 
L 287.773312 89.664843 
L 289.789312 94.295179 
L 291.805312 99.547274 
L 293.485312 104.59565 
L 294.829312 109.28562 
L 296.173312 114.897459 
L 297.181312 120.166122 
L 297.853312 124.672698 
L 298.525312 131.246437 
L 298.861312 140.255986 
L 298.861312 140.255986 
" style="fill:none;stroke:#ff0000;stroke-linecap:square;stroke-width:1.5;"/>
   </g>
   <g id="line2d_22">
    <path clip-path="url(#p37bbe9ad00)" d="M 56.941312 140.256 
L 57.277312 149.265563 
L 57.949312 155.839302 
L 58.957312 162.247964 
L 59.965312 167.1339 
L 61.309312 172.46822 
L 62.989312 178.025748 
L 64.669312 182.798165 
L 66.685312 187.819883 
L 68.701312 192.281778 
L 71.053312 196.95544 
L 73.741312 201.754098 
L 76.429312 206.094855 
L 79.453312 210.536245 
L 82.477312 214.590257 
L 85.837312 218.713259 
L 89.197312 222.492987 
L 92.893312 226.308086 
L 96.589312 229.808667 
L 100.621312 233.31041 
L 104.653312 236.516335 
L 109.021312 239.688727 
L 113.389312 242.576689 
L 117.757312 245.203705 
L 122.461312 247.762874 
L 127.165312 250.061191 
L 131.869312 252.114735 
L 136.573312 253.936772 
L 141.613312 255.644486 
L 146.653312 257.110115 
L 151.693312 258.342673 
L 156.733312 259.349398 
L 161.773312 260.135978 
L 166.813312 260.706728 
L 171.853312 261.064705 
L 176.893312 261.2118 
L 181.933312 261.148781 
L 186.973312 260.87532 
L 192.013312 260.38998 
L 197.053312 259.690176 
L 202.093312 258.772112 
L 207.133312 257.630664 
L 212.173312 256.25924 
L 217.213312 254.649567 
L 221.917312 252.923268 
L 226.621312 250.970422 
L 231.325312 248.778799 
L 236.029312 246.3336 
L 240.397312 243.820335 
L 244.765312 241.05544 
L 249.133312 238.017566 
L 253.165312 234.948407 
L 257.197312 231.598575 
L 260.893312 228.254009 
L 264.589312 224.615423 
L 268.285312 220.642903 
L 271.645312 216.698031 
L 274.669312 212.832 
L 277.693312 208.614455 
L 280.381312 204.514627 
L 283.069312 200.013957 
L 285.421312 195.67054 
L 287.773312 190.847157 
L 289.789312 186.216821 
L 291.805312 180.964726 
L 293.485312 175.91635 
L 294.829312 171.22638 
L 296.173312 165.614541 
L 297.181312 160.345878 
L 297.853312 155.839302 
L 298.525312 149.265563 
L 298.861312 140.256014 
L 298.861312 140.256014 
" style="fill:none;stroke:#ff0000;stroke-linecap:square;stroke-width:1.5;"/>
   </g>
   <g id="line2d_23">
    <path clip-path="url(#p37bbe9ad00)" d="M 56.941312 140.256 
L 57.277312 101.025065 
L 57.613312 93.650899 
L 58.285312 84.948385 
L 58.957312 79.175734 
L 59.965312 72.871191 
L 60.973312 68.073284 
L 62.317312 63.015098 
L 63.661312 58.925882 
L 65.005312 55.490224 
L 66.685312 51.850175 
L 68.365312 48.747597 
L 70.381312 45.555232 
L 72.397312 42.808497 
L 74.413312 40.412246 
L 76.765312 37.972056 
L 79.117312 35.843804 
L 81.805312 33.724135 
L 84.493312 31.880869 
L 87.517312 30.081988 
L 90.877312 28.368161 
L 94.237312 26.905409 
L 97.933312 25.539707 
L 101.965312 24.294187 
L 106.333312 23.185481 
L 111.037312 22.224091 
L 116.077312 21.414702 
L 121.789312 20.72135 
L 128.173312 20.169221 
L 135.565312 19.752365 
L 144.637312 19.469319 
L 157.069312 19.322612 
L 184.285312 19.296235 
L 207.805312 19.40912 
L 218.557312 19.683795 
L 226.621312 20.099851 
L 233.341312 20.653136 
L 239.389312 21.367809 
L 244.765312 22.224091 
L 249.469312 23.185481 
L 253.837312 24.294187 
L 257.869312 25.539707 
L 261.565312 26.905409 
L 264.925312 28.368161 
L 268.285312 30.081988 
L 271.309312 31.880869 
L 273.997312 33.724135 
L 276.685312 35.843804 
L 279.037312 37.972056 
L 281.389312 40.412246 
L 283.405312 42.808497 
L 285.421312 45.555232 
L 287.101312 48.179288 
L 288.781312 51.191638 
L 290.461312 54.710774 
L 291.805312 58.014232 
L 293.149312 61.91773 
L 294.157312 65.394246 
L 295.165312 69.552525 
L 296.173312 74.758009 
L 296.845312 79.175734 
L 297.517312 84.948385 
L 298.189312 93.650899 
L 298.525312 101.025065 
L 298.861312 140.206335 
L 298.861312 140.206335 
" style="fill:none;stroke:#bfbf00;stroke-linecap:square;stroke-width:1.5;"/>
   </g>
   <g id="line2d_24">
    <path clip-path="url(#p37bbe9ad00)" d="M 56.941312 140.256 
L 57.277312 179.486935 
L 57.613312 186.861101 
L 58.285312 195.563615 
L 58.957312 201.336266 
L 59.965312 207.640809 
L 60.973312 212.438716 
L 62.317312 217.496902 
L 63.661312 221.586118 
L 65.005312 225.021776 
L 66.685312 228.661825 
L 68.365312 231.764403 
L 70.381312 234.956768 
L 72.397312 237.703503 
L 74.413312 240.099754 
L 76.765312 242.539944 
L 79.117312 244.668196 
L 81.805312 246.787865 
L 84.493312 248.631131 
L 87.517312 250.430012 
L 90.877312 252.143839 
L 94.237312 253.606591 
L 97.933312 254.972293 
L 101.965312 256.217813 
L 106.333312 257.326519 
L 111.037312 258.287909 
L 116.077312 259.097298 
L 121.789312 259.79065 
L 128.173312 260.342779 
L 135.565312 260.759635 
L 144.637312 261.042681 
L 157.069312 261.189388 
L 184.285312 261.215765 
L 207.805312 261.10288 
L 218.557312 260.828205 
L 226.621312 260.412149 
L 233.341312 259.858864 
L 239.389312 259.144191 
L 244.765312 258.287909 
L 249.469312 257.326519 
L 253.837312 256.217813 
L 257.869312 254.972293 
L 261.565312 253.606591 
L 264.925312 252.143839 
L 268.285312 250.430012 
L 271.309312 248.631131 
L 273.997312 246.787865 
L 276.685312 244.668196 
L 279.037312 242.539944 
L 281.389312 240.099754 
L 283.405312 237.703503 
L 285.421312 234.956768 
L 287.101312 232.332712 
L 288.781312 229.320362 
L 290.461312 225.801226 
L 291.805312 222.497768 
L 293.149312 218.59427 
L 294.157312 215.117754 
L 295.165312 210.959475 
L 296.173312 205.753991 
L 296.845312 201.336266 
L 297.517312 195.563615 
L 298.189312 186.861101 
L 298.525312 179.486935 
L 298.861312 140.305665 
L 298.861312 140.305665 
" style="fill:none;stroke:#bfbf00;stroke-linecap:square;stroke-width:1.5;"/>
   </g>
   <g id="patch_3">
    <path d="M 44.845313 273.312 
L 44.845313 7.2 
" style="fill:none;stroke:#000000;stroke-linecap:square;stroke-linejoin:miter;stroke-width:0.8;"/>
   </g>
   <g id="patch_4">
    <path d="M 310.957312 273.312 
L 310.957312 7.2 
" style="fill:none;stroke:#000000;stroke-linecap:square;stroke-linejoin:miter;stroke-width:0.8;"/>
   </g>
   <g id="patch_5">
    <path d="M 44.845313 273.312 
L 310.957312 273.312 
" style="fill:none;stroke:#000000;stroke-linecap:square;stroke-linejoin:miter;stroke-width:0.8;"/>
   </g>
   <g id="patch_6">
    <path d="M 44.845313 7.2 
L 310.957312 7.2 
" style="fill:none;stroke:#000000;stroke-linecap:square;stroke-linejoin:miter;stroke-width:0.8;"/>
   </g>
  </g>
 </g>
 <defs>
  <clipPath id="p37bbe9ad00">
   <rect height="266.112" width="266.112" x="44.845313" y="7.2"/>
  </clipPath>
 </defs>
</svg>
