<?xml version="1.0" encoding="utf-8" standalone="no"?>
<!DOCTYPE svg PUBLIC "-//W3C//DTD SVG 1.1//EN"
  "http://www.w3.org/Graphics/SVG/1.1/DTD/svg11.dtd">
<svg xmlns:xlink="http://www.w3.org/1999/xlink" width="712.8pt" height="351.155pt" viewBox="0 0 712.8 351.155" xmlns="http://www.w3.org/2000/svg" version="1.1">
 <metadata>
  <rdf:RDF xmlns:dc="http://purl.org/dc/elements/1.1/" xmlns:cc="http://creativecommons.org/ns#" xmlns:rdf="http://www.w3.org/1999/02/22-rdf-syntax-ns#">
   <cc:Work>
    <dc:type rdf:resource="http://purl.org/dc/dcmitype/StillImage"/>
    <dc:date>2026-01-22T11:13:49.624864</dc:date>
    <dc:format>image/svg+xml</dc:format>
    <dc:creator>
     <cc:Agent>
      <dc:title>Matplotlib v3.9.4, https://matplotlib.org/</dc:title>
     </cc:Agent>
    </dc:creator>
   </cc:Work>
  </rdf:RDF>
 </metadata>
 <defs>
  <style type="text/css">*{stroke-linejoin: round; stroke-linecap: butt}</style>
 </defs>
 <g id="figure_1">
  <g id="patch_1">
   <path d="M 0 351.155 
L 712.8 351.155 
L 712.8 0 
L 0 0 
L 0 351.155 
z
" style="fill: none"/>
  </g>
  <g id="axes_1">
   <g id="patch_2">
    <path d="M 146.88 313.3435 
C 174.662677 313.3435 201.311187 300.441817 220.956506 277.479897 
C 240.601826 254.517977 251.64 223.370559 251.64 190.8975 
C 251.64 158.424441 240.601826 127.277023 220.956506 104.315103 
C 201.311187 81.353183 174.662677 68.4515 146.88 68.4515 
C 119.097323 68.4515 92.448813 81.353183 72.803494 104.315103 
C 53.158174 127.277023 42.12 158.424441 42.12 190.8975 
C 42.12 223.370559 53.158174 254.517977 72.803494 277.479897 
C 92.448813 300.441817 119.097323 313.3435 146.88 313.3435 
z
" clip-path="url(#p6ac86fac95)" style="fill: #f0f0f0; stroke: #333333; stroke-width: 2; stroke-linejoin: miter"/>
   </g>
   <g id="patch_3">
    <path d="M 356.4 313.3435 
C 384.182677 313.3435 410.831187 300.441817 430.476506 277.479897 
C 450.121826 254.517977 461.16 223.370559 461.16 190.8975 
C 461.16 158.424441 450.121826 127.277023 430.476506 104.315103 
C 410.831187 81.353183 384.182677 68.4515 356.4 68.4515 
C 328.617323 68.4515 301.968813 81.353183 282.323494 104.315103 
C 262.678174 127.277023 251.64 158.424441 251.64 190.8975 
C 251.64 223.370559 262.678174 254.517977 282.323494 277.479897 
C 301.968813 300.441817 328.617323 313.3435 356.4 313.3435 
z
" clip-path="url(#p6ac86fac95)" style="fill: #f0f0f0; stroke: #333333; stroke-width: 2; stroke-linejoin: miter"/>
   </g>
   <g id="patch_4">
    <path d="M 565.92 313.3435 
C 593.702677 313.3435 620.351187 300.441817 639.996506 277.479897 
C 659.641826 254.517977 670.68 223.370559 670.68 190.8975 
C 670.68 158.424441 659.641826 127.277023 639.996506 104.315103 
C 620.351187 81.353183 593.702677 68.4515 565.92 68.4515 
C 538.137323 68.4515 511.488813 81.353183 491.843494 104.315103 
C 472.198174 127.277023 461.16 158.424441 461.16 190.8975 
C 461.16 223.370559 472.198174 254.517977 491.843494 277.479897 
C 511.488813 300.441817 538.137323 313.3435 565.92 313.3435 
z
" clip-path="url(#p6ac86fac95)" style="fill: #f0f0f0; stroke: #333333; stroke-width: 2; stroke-linejoin: miter"/>
   </g>
   <g id="patch_5">
    <path d="M 356.4 282.732 
C 376.773963 282.732 396.316204 273.055738 410.722771 255.834298 
C 425.129339 238.612858 433.224 215.252294 433.224 190.8975 
C 433.224 166.542706 425.129339 143.182142 410.722771 125.960702 
C 396.316204 108.739262 376.773963 99.063 356.4 99.063 
C 336.026037 99.063 316.483796 108.739262 302.077229 125.960702 
C 287.670661 143.182142 279.576 166.542706 279.576 190.8975 
C 279.576 215.252294 287.670661 238.612858 302.077229 255.834298 
C 316.483796 273.055738 336.026037 282.732 356.4 282.732 
z
" clip-path="url(#p6ac86fac95)" style="fill: #ffcccc; opacity: 0.6; stroke-dasharray: 3.7,1.6; stroke-dashoffset: 0; stroke: #d62728; stroke-linejoin: miter"/>
   </g>
   <g id="patch_6">
    <path d="M 356.4 258.2428 
C 367.513071 258.2428 378.172475 252.437043 386.030603 242.104179 
C 393.88873 231.771315 398.304 217.754976 398.304 203.1421 
C 398.304 188.529224 393.88873 174.512885 386.030603 164.180021 
C 378.172475 153.847157 367.513071 148.0414 356.4 148.0414 
C 345.286929 148.0414 334.627525 153.847157 326.769397 164.180021 
C 318.91127 174.512885 314.496 188.529224 314.496 203.1421 
C 314.496 217.754976 318.91127 231.771315 326.769397 242.104179 
C 334.627525 252.437043 345.286929 258.2428 356.4 258.2428 
z
" clip-path="url(#p6ac86fac95)" style="fill: #ccffcc; opacity: 0.8; stroke: #2ca02c; stroke-linejoin: miter"/>
   </g>
   <g id="line2d_1">
    <defs>
     <path id="m6676f82cf8" d="M 0 3 
C 0.795609 3 1.55874 2.683901 2.12132 2.12132 
C 2.683901 1.55874 3 0.795609 3 0 
C 3 -0.795609 2.683901 -1.55874 2.12132 -2.12132 
C 1.55874 -2.683901 0.795609 -3 0 -3 
C -0.795609 -3 -1.55874 -2.683901 -2.12132 -2.12132 
C -2.683901 -1.55874 -3 -0.795609 -3 0 
C -3 0.795609 -2.683901 1.55874 -2.12132 2.12132 
C -1.55874 2.683901 -0.795609 3 0 3 
z
" style="stroke: #000000"/>
    </defs>
    <g clip-path="url(#p6ac86fac95)">
     <use xlink:href="#m6676f82cf8" x="146.88" y="190.8975" style="stroke: #000000"/>
    </g>
   </g>
   <g id="line2d_2">
    <g clip-path="url(#p6ac86fac95)">
     <use xlink:href="#m6676f82cf8" x="565.92" y="190.8975" style="stroke: #000000"/>
    </g>
   </g>
   <g id="text_1">
    <!-- Input Space $\mathbb{R}^n$ -->
    <g transform="translate(96.78 86.8184) scale(0.12 -0.12)">
     <defs>
      <path id="DejaVuSans-Bold-49" d="M 588 4666 
L 1791 4666 
L 1791 0 
L 588 0 
L 588 4666 
z
" transform="scale(0.015625)"/>
      <path id="DejaVuSans-Bold-6e" d="M 4056 2131 
L 4056 0 
L 2931 0 
L 2931 347 
L 2931 1631 
Q 2931 2084 2911 2256 
Q 2891 2428 2841 2509 
Q 2775 2619 2662 2680 
Q 2550 2741 2406 2741 
Q 2056 2741 1856 2470 
Q 1656 2200 1656 1722 
L 1656 0 
L 538 0 
L 538 3500 
L 1656 3500 
L 1656 2988 
Q 1909 3294 2193 3439 
Q 2478 3584 2822 3584 
Q 3428 3584 3742 3212 
Q 4056 2841 4056 2131 
z
" transform="scale(0.015625)"/>
      <path id="DejaVuSans-Bold-70" d="M 1656 506 
L 1656 -1331 
L 538 -1331 
L 538 3500 
L 1656 3500 
L 1656 2988 
Q 1888 3294 2169 3439 
Q 2450 3584 2816 3584 
Q 3463 3584 3878 3070 
Q 4294 2556 4294 1747 
Q 4294 938 3878 423 
Q 3463 -91 2816 -91 
Q 2450 -91 2169 54 
Q 1888 200 1656 506 
z
M 2400 2772 
Q 2041 2772 1848 2508 
Q 1656 2244 1656 1747 
Q 1656 1250 1848 986 
Q 2041 722 2400 722 
Q 2759 722 2948 984 
Q 3138 1247 3138 1747 
Q 3138 2247 2948 2509 
Q 2759 2772 2400 2772 
z
" transform="scale(0.015625)"/>
      <path id="DejaVuSans-Bold-75" d="M 500 1363 
L 500 3500 
L 1625 3500 
L 1625 3150 
Q 1625 2866 1622 2436 
Q 1619 2006 1619 1863 
Q 1619 1441 1641 1255 
Q 1663 1069 1716 984 
Q 1784 875 1895 815 
Q 2006 756 2150 756 
Q 2500 756 2700 1025 
Q 2900 1294 2900 1772 
L 2900 3500 
L 4019 3500 
L 4019 0 
L 2900 0 
L 2900 506 
Q 2647 200 2364 54 
Q 2081 -91 1741 -91 
Q 1134 -91 817 281 
Q 500 653 500 1363 
z
" transform="scale(0.015625)"/>
      <path id="DejaVuSans-Bold-74" d="M 1759 4494 
L 1759 3500 
L 2913 3500 
L 2913 2700 
L 1759 2700 
L 1759 1216 
Q 1759 972 1856 886 
Q 1953 800 2241 800 
L 2816 800 
L 2816 0 
L 1856 0 
Q 1194 0 917 276 
Q 641 553 641 1216 
L 641 2700 
L 84 2700 
L 84 3500 
L 641 3500 
L 641 4494 
L 1759 4494 
z
" transform="scale(0.015625)"/>
      <path id="DejaVuSans-Bold-20" transform="scale(0.015625)"/>
      <path id="DejaVuSans-Bold-53" d="M 3834 4519 
L 3834 3531 
Q 3450 3703 3084 3790 
Q 2719 3878 2394 3878 
Q 1963 3878 1756 3759 
Q 1550 3641 1550 3391 
Q 1550 3203 1689 3098 
Q 1828 2994 2194 2919 
L 2706 2816 
Q 3484 2659 3812 2340 
Q 4141 2022 4141 1434 
Q 4141 663 3683 286 
Q 3225 -91 2284 -91 
Q 1841 -91 1394 -6 
Q 947 78 500 244 
L 500 1259 
Q 947 1022 1364 901 
Q 1781 781 2169 781 
Q 2563 781 2772 912 
Q 2981 1044 2981 1288 
Q 2981 1506 2839 1625 
Q 2697 1744 2272 1838 
L 1806 1941 
Q 1106 2091 782 2419 
Q 459 2747 459 3303 
Q 459 4000 909 4375 
Q 1359 4750 2203 4750 
Q 2588 4750 2994 4692 
Q 3400 4634 3834 4519 
z
" transform="scale(0.015625)"/>
      <path id="DejaVuSans-Bold-61" d="M 2106 1575 
Q 1756 1575 1579 1456 
Q 1403 1338 1403 1106 
Q 1403 894 1545 773 
Q 1688 653 1941 653 
Q 2256 653 2472 879 
Q 2688 1106 2688 1447 
L 2688 1575 
L 2106 1575 
z
M 3816 1997 
L 3816 0 
L 2688 0 
L 2688 519 
Q 2463 200 2181 54 
Q 1900 -91 1497 -91 
Q 953 -91 614 226 
Q 275 544 275 1050 
Q 275 1666 698 1953 
Q 1122 2241 2028 2241 
L 2688 2241 
L 2688 2328 
Q 2688 2594 2478 2717 
Q 2269 2841 1825 2841 
Q 1466 2841 1156 2769 
Q 847 2697 581 2553 
L 581 3406 
Q 941 3494 1303 3539 
Q 1666 3584 2028 3584 
Q 2975 3584 3395 3211 
Q 3816 2838 3816 1997 
z
" transform="scale(0.015625)"/>
      <path id="DejaVuSans-Bold-63" d="M 3366 3391 
L 3366 2478 
Q 3138 2634 2908 2709 
Q 2678 2784 2431 2784 
Q 1963 2784 1702 2511 
Q 1441 2238 1441 1747 
Q 1441 1256 1702 982 
Q 1963 709 2431 709 
Q 2694 709 2930 787 
Q 3166 866 3366 1019 
L 3366 103 
Q 3103 6 2833 -42 
Q 2563 -91 2291 -91 
Q 1344 -91 809 395 
Q 275 881 275 1747 
Q 275 2613 809 3098 
Q 1344 3584 2291 3584 
Q 2566 3584 2833 3536 
Q 3100 3488 3366 3391 
z
" transform="scale(0.015625)"/>
      <path id="DejaVuSans-Bold-65" d="M 4031 1759 
L 4031 1441 
L 1416 1441 
Q 1456 1047 1700 850 
Q 1944 653 2381 653 
Q 2734 653 3104 758 
Q 3475 863 3866 1075 
L 3866 213 
Q 3469 63 3072 -14 
Q 2675 -91 2278 -91 
Q 1328 -91 801 392 
Q 275 875 275 1747 
Q 275 2603 792 3093 
Q 1309 3584 2216 3584 
Q 3041 3584 3536 3087 
Q 4031 2591 4031 1759 
z
M 2881 2131 
Q 2881 2450 2695 2645 
Q 2509 2841 2209 2841 
Q 1884 2841 1681 2658 
Q 1478 2475 1428 2131 
L 2881 2131 
z
" transform="scale(0.015625)"/>
      <path id="STIXGeneral-Italic-211d" d="M 1229 4179 
L 3360 4179 
Q 3827 4179 4108 3894 
Q 4390 3610 4390 3142 
Q 4390 2554 4060 2186 
Q 3731 1818 3149 1715 
L 4026 0 
L 2925 0 
L 2125 1690 
L 1549 1690 
L 1094 0 
L 109 0 
L 1229 4179 
z
M 3866 3821 
L 3392 2022 
Q 3770 2144 3962 2438 
Q 4154 2733 4154 3136 
Q 4154 3584 3866 3821 
z
M 3142 1978 
L 3648 3872 
Q 3450 3942 3296 3942 
L 2150 3942 
L 1613 1926 
L 2630 1926 
Q 2957 1926 3142 1978 
z
M 3629 237 
L 2899 1696 
Q 2829 1683 2682 1683 
Q 2630 1683 2531 1686 
Q 2432 1690 2387 1690 
L 3072 237 
L 3629 237 
z
M 1907 3942 
L 1408 3942 
L 416 237 
L 915 237 
L 1907 3942 
z
" transform="scale(0.015625)"/>
      <path id="Cmmi10-6e" d="M 494 109 
Q 494 147 500 166 
L 978 2075 
Q 1025 2253 1025 2388 
Q 1025 2663 838 2663 
Q 638 2663 541 2423 
Q 444 2184 353 1819 
Q 353 1800 334 1789 
Q 316 1778 300 1778 
L 225 1778 
Q 203 1778 187 1801 
Q 172 1825 172 1844 
Q 241 2122 305 2315 
Q 369 2509 505 2668 
Q 641 2828 844 2828 
Q 1084 2828 1268 2676 
Q 1453 2525 1453 2291 
Q 1644 2541 1900 2684 
Q 2156 2828 2444 2828 
Q 2672 2828 2837 2750 
Q 3003 2672 3095 2514 
Q 3188 2356 3188 2138 
Q 3188 1875 3070 1503 
Q 2953 1131 2778 672 
Q 2688 463 2688 288 
Q 2688 97 2834 97 
Q 3084 97 3251 365 
Q 3419 634 3488 941 
Q 3500 978 3541 978 
L 3616 978 
Q 3641 978 3658 962 
Q 3675 947 3675 922 
Q 3675 916 3669 903 
Q 3581 541 3364 234 
Q 3147 -72 2822 -72 
Q 2597 -72 2437 83 
Q 2278 238 2278 459 
Q 2278 578 2328 709 
Q 2409 919 2514 1209 
Q 2619 1500 2686 1765 
Q 2753 2031 2753 2234 
Q 2753 2413 2679 2538 
Q 2606 2663 2431 2663 
Q 2197 2663 2000 2559 
Q 1803 2456 1656 2286 
Q 1509 2116 1388 1881 
L 953 141 
Q 931 53 854 -9 
Q 778 -72 684 -72 
Q 606 -72 550 -22 
Q 494 28 494 109 
z
" transform="scale(0.015625)"/>
     </defs>
     <use xlink:href="#DejaVuSans-Bold-49" transform="translate(0 0.78125)"/>
     <use xlink:href="#DejaVuSans-Bold-6e" transform="translate(37.207031 0.78125)"/>
     <use xlink:href="#DejaVuSans-Bold-70" transform="translate(108.398438 0.78125)"/>
     <use xlink:href="#DejaVuSans-Bold-75" transform="translate(179.980469 0.78125)"/>
     <use xlink:href="#DejaVuSans-Bold-74" transform="translate(251.171875 0.78125)"/>
     <use xlink:href="#DejaVuSans-Bold-20" transform="translate(298.974609 0.78125)"/>
     <use xlink:href="#DejaVuSans-Bold-53" transform="translate(333.789062 0.78125)"/>
     <use xlink:href="#DejaVuSans-Bold-70" transform="translate(405.810547 0.78125)"/>
     <use xlink:href="#DejaVuSans-Bold-61" transform="translate(477.392578 0.78125)"/>
     <use xlink:href="#DejaVuSans-Bold-63" transform="translate(544.873047 0.78125)"/>
     <use xlink:href="#DejaVuSans-Bold-65" transform="translate(604.150391 0.78125)"/>
     <use xlink:href="#DejaVuSans-Bold-20" transform="translate(671.972656 0.78125)"/>
     <use xlink:href="#STIXGeneral-Italic-211d" transform="translate(706.787109 0.78125)"/>
     <use xlink:href="#Cmmi10-6e" transform="translate(786.223341 39.045313) scale(0.7)"/>
    </g>
   </g>
   <g id="text_2">
    <!-- Middle Space $\mathbb{R}^n$ -->
    <g transform="translate(301.5 86.8184) scale(0.12 -0.12)">
     <defs>
      <path id="DejaVuSans-Bold-4d" d="M 588 4666 
L 2119 4666 
L 3181 2169 
L 4250 4666 
L 5778 4666 
L 5778 0 
L 4641 0 
L 4641 3413 
L 3566 897 
L 2803 897 
L 1728 3413 
L 1728 0 
L 588 0 
L 588 4666 
z
" transform="scale(0.015625)"/>
      <path id="DejaVuSans-Bold-69" d="M 538 3500 
L 1656 3500 
L 1656 0 
L 538 0 
L 538 3500 
z
M 538 4863 
L 1656 4863 
L 1656 3950 
L 538 3950 
L 538 4863 
z
" transform="scale(0.015625)"/>
      <path id="DejaVuSans-Bold-64" d="M 2919 2988 
L 2919 4863 
L 4044 4863 
L 4044 0 
L 2919 0 
L 2919 506 
Q 2688 197 2409 53 
Q 2131 -91 1766 -91 
Q 1119 -91 703 423 
Q 288 938 288 1747 
Q 288 2556 703 3070 
Q 1119 3584 1766 3584 
Q 2128 3584 2408 3439 
Q 2688 3294 2919 2988 
z
M 2181 722 
Q 2541 722 2730 984 
Q 2919 1247 2919 1747 
Q 2919 2247 2730 2509 
Q 2541 2772 2181 2772 
Q 1825 2772 1636 2509 
Q 1447 2247 1447 1747 
Q 1447 1247 1636 984 
Q 1825 722 2181 722 
z
" transform="scale(0.015625)"/>
      <path id="DejaVuSans-Bold-6c" d="M 538 4863 
L 1656 4863 
L 1656 0 
L 538 0 
L 538 4863 
z
" transform="scale(0.015625)"/>
     </defs>
     <use xlink:href="#DejaVuSans-Bold-4d" transform="translate(0 0.015625)"/>
     <use xlink:href="#DejaVuSans-Bold-69" transform="translate(99.511719 0.015625)"/>
     <use xlink:href="#DejaVuSans-Bold-64" transform="translate(133.789062 0.015625)"/>
     <use xlink:href="#DejaVuSans-Bold-64" transform="translate(205.371094 0.015625)"/>
     <use xlink:href="#DejaVuSans-Bold-6c" transform="translate(276.953125 0.015625)"/>
     <use xlink:href="#DejaVuSans-Bold-65" transform="translate(311.230469 0.015625)"/>
     <use xlink:href="#DejaVuSans-Bold-20" transform="translate(379.052734 0.015625)"/>
     <use xlink:href="#DejaVuSans-Bold-53" transform="translate(413.867188 0.015625)"/>
     <use xlink:href="#DejaVuSans-Bold-70" transform="translate(485.888672 0.015625)"/>
     <use xlink:href="#DejaVuSans-Bold-61" transform="translate(557.470703 0.015625)"/>
     <use xlink:href="#DejaVuSans-Bold-63" transform="translate(624.951172 0.015625)"/>
     <use xlink:href="#DejaVuSans-Bold-65" transform="translate(684.228516 0.015625)"/>
     <use xlink:href="#DejaVuSans-Bold-20" transform="translate(752.050781 0.015625)"/>
     <use xlink:href="#STIXGeneral-Italic-211d" transform="translate(786.865234 0.015625)"/>
     <use xlink:href="#Cmmi10-6e" transform="translate(866.301466 38.279688) scale(0.7)"/>
    </g>
   </g>
   <g id="text_3">
    <!-- Output Space $\mathbb{R}^n$ -->
    <g transform="translate(510.06 86.8184) scale(0.12 -0.12)">
     <defs>
      <path id="DejaVuSans-Bold-4f" d="M 2719 3878 
Q 2169 3878 1866 3472 
Q 1563 3066 1563 2328 
Q 1563 1594 1866 1187 
Q 2169 781 2719 781 
Q 3272 781 3575 1187 
Q 3878 1594 3878 2328 
Q 3878 3066 3575 3472 
Q 3272 3878 2719 3878 
z
M 2719 4750 
Q 3844 4750 4481 4106 
Q 5119 3463 5119 2328 
Q 5119 1197 4481 553 
Q 3844 -91 2719 -91 
Q 1597 -91 958 553 
Q 319 1197 319 2328 
Q 319 3463 958 4106 
Q 1597 4750 2719 4750 
z
" transform="scale(0.015625)"/>
     </defs>
     <use xlink:href="#DejaVuSans-Bold-4f" transform="translate(0 0.78125)"/>
     <use xlink:href="#DejaVuSans-Bold-75" transform="translate(85.009766 0.78125)"/>
     <use xlink:href="#DejaVuSans-Bold-74" transform="translate(156.201172 0.78125)"/>
     <use xlink:href="#DejaVuSans-Bold-70" transform="translate(204.003906 0.78125)"/>
     <use xlink:href="#DejaVuSans-Bold-75" transform="translate(275.585938 0.78125)"/>
     <use xlink:href="#DejaVuSans-Bold-74" transform="translate(346.777344 0.78125)"/>
     <use xlink:href="#DejaVuSans-Bold-20" transform="translate(394.580078 0.78125)"/>
     <use xlink:href="#DejaVuSans-Bold-53" transform="translate(429.394531 0.78125)"/>
     <use xlink:href="#DejaVuSans-Bold-70" transform="translate(501.416016 0.78125)"/>
     <use xlink:href="#DejaVuSans-Bold-61" transform="translate(572.998047 0.78125)"/>
     <use xlink:href="#DejaVuSans-Bold-63" transform="translate(640.478516 0.78125)"/>
     <use xlink:href="#DejaVuSans-Bold-65" transform="translate(699.755859 0.78125)"/>
     <use xlink:href="#DejaVuSans-Bold-20" transform="translate(767.578125 0.78125)"/>
     <use xlink:href="#STIXGeneral-Italic-211d" transform="translate(802.392578 0.78125)"/>
     <use xlink:href="#Cmmi10-6e" transform="translate(881.82881 39.045313) scale(0.7)"/>
    </g>
   </g>
   <g id="text_4">
    <!-- $N(\mathbf{A})$ -->
    <g style="fill: #d62728" transform="translate(342.36 129.6745) scale(0.12 -0.12)">
     <defs>
      <path id="Cmmi10-4e" d="M 300 0 
Q 238 0 238 84 
Q 241 100 250 139 
Q 259 178 276 201 
Q 294 225 319 225 
Q 931 225 1031 616 
L 1900 4116 
Q 1722 4147 1338 4147 
Q 1275 4147 1275 4231 
Q 1278 4247 1287 4286 
Q 1297 4325 1314 4348 
Q 1331 4372 1356 4372 
L 2463 4372 
Q 2509 4372 2522 4331 
L 3944 947 
L 4653 3781 
Q 4666 3850 4666 3878 
Q 4666 4147 4172 4147 
Q 4109 4147 4109 4231 
Q 4131 4313 4143 4342 
Q 4156 4372 4219 4372 
L 5588 4372 
Q 5650 4372 5650 4288 
Q 5647 4272 5637 4233 
Q 5628 4194 5611 4170 
Q 5594 4147 5569 4147 
Q 4956 4147 4856 3756 
L 3938 56 
Q 3916 0 3872 0 
L 3794 0 
Q 3750 0 3738 44 
L 2106 3916 
L 2094 3956 
Q 2081 3969 2081 3975 
L 1234 588 
Q 1228 572 1225 548 
Q 1222 525 1216 494 
Q 1216 328 1359 276 
Q 1503 225 1716 225 
Q 1778 225 1778 141 
Q 1756 53 1740 26 
Q 1725 0 1672 0 
L 300 0 
z
" transform="scale(0.015625)"/>
      <path id="Cmr10-28" d="M 1984 -1588 
Q 1628 -1306 1370 -942 
Q 1113 -578 948 -165 
Q 784 247 703 697 
Q 622 1147 622 1600 
Q 622 2059 703 2509 
Q 784 2959 951 3375 
Q 1119 3791 1378 4153 
Q 1638 4516 1984 4788 
Q 1984 4800 2016 4800 
L 2075 4800 
Q 2094 4800 2109 4783 
Q 2125 4766 2125 4744 
Q 2125 4716 2113 4703 
Q 1800 4397 1592 4047 
Q 1384 3697 1257 3301 
Q 1131 2906 1075 2482 
Q 1019 2059 1019 1600 
Q 1019 -434 2106 -1491 
Q 2125 -1509 2125 -1544 
Q 2125 -1559 2108 -1579 
Q 2091 -1600 2075 -1600 
L 2016 -1600 
Q 1984 -1600 1984 -1588 
z
" transform="scale(0.015625)"/>
      <path id="Cmb10-41" d="M 225 0 
L 225 325 
Q 775 325 794 384 
L 2181 4353 
Q 2228 4469 2344 4469 
L 2491 4469 
Q 2541 4469 2586 4436 
Q 2631 4403 2650 4353 
L 4056 325 
L 4609 325 
L 4609 0 
L 2578 0 
L 2578 325 
L 3103 325 
L 2822 1131 
L 1441 1131 
L 1184 378 
Q 1184 325 1684 325 
L 1684 0 
L 225 0 
z
M 1556 1459 
L 2706 1459 
L 2131 3103 
L 1556 1459 
z
" transform="scale(0.015625)"/>
      <path id="Cmr10-29" d="M 416 -1600 
Q 359 -1600 359 -1544 
Q 359 -1516 372 -1503 
Q 1466 -434 1466 1600 
Q 1466 3634 384 4691 
Q 359 4706 359 4744 
Q 359 4766 376 4783 
Q 394 4800 416 4800 
L 475 4800 
Q 494 4800 506 4788 
Q 966 4425 1272 3906 
Q 1578 3388 1720 2800 
Q 1863 2213 1863 1600 
Q 1863 1147 1786 708 
Q 1709 269 1542 -157 
Q 1375 -584 1119 -945 
Q 863 -1306 506 -1588 
Q 494 -1600 475 -1600 
L 416 -1600 
z
" transform="scale(0.015625)"/>
     </defs>
     <use xlink:href="#Cmmi10-4e"/>
     <use xlink:href="#Cmr10-28" transform="translate(80.322266 0)"/>
     <use xlink:href="#Cmb10-41" transform="translate(119.140625 0)"/>
     <use xlink:href="#Cmr10-29" transform="translate(194.628906 0)"/>
    </g>
   </g>
   <g id="text_5">
    <!-- The Destruction Zone -->
    <g style="fill: #d62728" transform="translate(307.575703 294.9766) scale(0.09 -0.09)">
     <defs>
      <path id="DejaVuSans-Oblique-54" d="M 378 4666 
L 4325 4666 
L 4225 4134 
L 2559 4134 
L 1759 0 
L 1125 0 
L 1925 4134 
L 275 4134 
L 378 4666 
z
" transform="scale(0.015625)"/>
      <path id="DejaVuSans-Oblique-68" d="M 3566 2113 
L 3156 0 
L 2578 0 
L 2988 2091 
Q 3016 2238 3031 2350 
Q 3047 2463 3047 2528 
Q 3047 2791 2881 2937 
Q 2716 3084 2419 3084 
Q 1956 3084 1617 2771 
Q 1278 2459 1178 1941 
L 800 0 
L 225 0 
L 1172 4863 
L 1747 4863 
L 1375 2950 
Q 1594 3244 1934 3414 
Q 2275 3584 2650 3584 
Q 3113 3584 3367 3334 
Q 3622 3084 3622 2631 
Q 3622 2519 3608 2391 
Q 3594 2263 3566 2113 
z
" transform="scale(0.015625)"/>
      <path id="DejaVuSans-Oblique-65" d="M 3078 2063 
Q 3088 2113 3092 2166 
Q 3097 2219 3097 2272 
Q 3097 2653 2873 2875 
Q 2650 3097 2266 3097 
Q 1838 3097 1509 2826 
Q 1181 2556 1013 2059 
L 3078 2063 
z
M 3578 1613 
L 903 1613 
Q 884 1494 878 1425 
Q 872 1356 872 1306 
Q 872 872 1139 634 
Q 1406 397 1894 397 
Q 2269 397 2603 481 
Q 2938 566 3225 728 
L 3116 159 
Q 2806 34 2476 -28 
Q 2147 -91 1806 -91 
Q 1078 -91 686 257 
Q 294 606 294 1247 
Q 294 1794 489 2264 
Q 684 2734 1063 3103 
Q 1306 3334 1642 3459 
Q 1978 3584 2356 3584 
Q 2950 3584 3301 3228 
Q 3653 2872 3653 2272 
Q 3653 2128 3634 1964 
Q 3616 1800 3578 1613 
z
" transform="scale(0.015625)"/>
      <path id="DejaVuSans-Oblique-20" transform="scale(0.015625)"/>
      <path id="DejaVuSans-Oblique-44" d="M 1081 4666 
L 2438 4666 
Q 3519 4666 4070 4208 
Q 4622 3750 4622 2847 
Q 4622 2250 4412 1698 
Q 4203 1147 3834 769 
Q 3463 381 2891 190 
Q 2319 0 1538 0 
L 172 0 
L 1081 4666 
z
M 1613 4147 
L 909 519 
L 1734 519 
Q 2794 519 3375 1128 
Q 3956 1738 3956 2847 
Q 3956 3519 3581 3833 
Q 3206 4147 2406 4147 
L 1613 4147 
z
" transform="scale(0.015625)"/>
      <path id="DejaVuSans-Oblique-73" d="M 3200 3397 
L 3091 2853 
Q 2863 2978 2609 3040 
Q 2356 3103 2088 3103 
Q 1634 3103 1373 2948 
Q 1113 2794 1113 2528 
Q 1113 2219 1719 2053 
Q 1766 2041 1788 2034 
L 1972 1978 
Q 2547 1819 2739 1644 
Q 2931 1469 2931 1166 
Q 2931 609 2489 259 
Q 2047 -91 1331 -91 
Q 1053 -91 747 -37 
Q 441 16 72 128 
L 184 722 
Q 500 559 806 475 
Q 1113 391 1394 391 
Q 1816 391 2080 572 
Q 2344 753 2344 1031 
Q 2344 1331 1650 1516 
L 1591 1531 
L 1394 1581 
Q 956 1697 753 1886 
Q 550 2075 550 2369 
Q 550 2928 970 3256 
Q 1391 3584 2113 3584 
Q 2397 3584 2667 3537 
Q 2938 3491 3200 3397 
z
" transform="scale(0.015625)"/>
      <path id="DejaVuSans-Oblique-74" d="M 2706 3500 
L 2619 3053 
L 1472 3053 
L 1100 1153 
Q 1081 1047 1072 975 
Q 1063 903 1063 863 
Q 1063 663 1183 572 
Q 1303 481 1569 481 
L 2150 481 
L 2053 0 
L 1503 0 
Q 991 0 739 200 
Q 488 400 488 806 
Q 488 878 497 964 
Q 506 1050 525 1153 
L 897 3053 
L 409 3053 
L 500 3500 
L 978 3500 
L 1172 4494 
L 1747 4494 
L 1556 3500 
L 2706 3500 
z
" transform="scale(0.015625)"/>
      <path id="DejaVuSans-Oblique-72" d="M 2853 2969 
Q 2766 3016 2653 3041 
Q 2541 3066 2413 3066 
Q 1953 3066 1609 2717 
Q 1266 2369 1153 1784 
L 800 0 
L 225 0 
L 909 3500 
L 1484 3500 
L 1375 2956 
Q 1603 3259 1920 3421 
Q 2238 3584 2597 3584 
Q 2691 3584 2781 3573 
Q 2872 3563 2963 3538 
L 2853 2969 
z
" transform="scale(0.015625)"/>
      <path id="DejaVuSans-Oblique-75" d="M 428 1388 
L 838 3500 
L 1416 3500 
L 1006 1409 
Q 975 1256 961 1147 
Q 947 1038 947 966 
Q 947 700 1109 554 
Q 1272 409 1569 409 
Q 2031 409 2368 721 
Q 2706 1034 2809 1563 
L 3194 3500 
L 3769 3500 
L 3091 0 
L 2516 0 
L 2631 550 
Q 2388 244 2052 76 
Q 1716 -91 1338 -91 
Q 878 -91 622 161 
Q 366 413 366 863 
Q 366 956 381 1097 
Q 397 1238 428 1388 
z
" transform="scale(0.015625)"/>
      <path id="DejaVuSans-Oblique-63" d="M 3431 3366 
L 3316 2797 
Q 3109 2947 2876 3022 
Q 2644 3097 2394 3097 
Q 2119 3097 1870 3000 
Q 1622 2903 1453 2725 
Q 1184 2453 1037 2087 
Q 891 1722 891 1331 
Q 891 859 1127 628 
Q 1363 397 1844 397 
Q 2081 397 2348 469 
Q 2616 541 2906 684 
L 2797 116 
Q 2547 13 2283 -39 
Q 2019 -91 1741 -91 
Q 1044 -91 669 257 
Q 294 606 294 1253 
Q 294 1797 489 2255 
Q 684 2713 1069 3078 
Q 1331 3328 1684 3456 
Q 2038 3584 2456 3584 
Q 2700 3584 2940 3529 
Q 3181 3475 3431 3366 
z
" transform="scale(0.015625)"/>
      <path id="DejaVuSans-Oblique-69" d="M 1172 4863 
L 1747 4863 
L 1606 4134 
L 1031 4134 
L 1172 4863 
z
M 909 3500 
L 1484 3500 
L 800 0 
L 225 0 
L 909 3500 
z
" transform="scale(0.015625)"/>
      <path id="DejaVuSans-Oblique-6f" d="M 1625 -91 
Q 1009 -91 651 289 
Q 294 669 294 1325 
Q 294 1706 417 2101 
Q 541 2497 738 2766 
Q 1047 3184 1428 3384 
Q 1809 3584 2291 3584 
Q 2888 3584 3255 3212 
Q 3622 2841 3622 2241 
Q 3622 1825 3500 1412 
Q 3378 1000 3181 728 
Q 2875 309 2494 109 
Q 2113 -91 1625 -91 
z
M 891 1344 
Q 891 869 1089 633 
Q 1288 397 1691 397 
Q 2269 397 2648 901 
Q 3028 1406 3028 2181 
Q 3028 2634 2825 2865 
Q 2622 3097 2228 3097 
Q 1903 3097 1650 2945 
Q 1397 2794 1197 2484 
Q 1050 2253 970 1956 
Q 891 1659 891 1344 
z
" transform="scale(0.015625)"/>
      <path id="DejaVuSans-Oblique-6e" d="M 3566 2113 
L 3156 0 
L 2578 0 
L 2988 2091 
Q 3016 2238 3031 2350 
Q 3047 2463 3047 2528 
Q 3047 2791 2881 2937 
Q 2716 3084 2419 3084 
Q 1956 3084 1622 2776 
Q 1288 2469 1184 1941 
L 800 0 
L 225 0 
L 903 3500 
L 1478 3500 
L 1363 2950 
Q 1603 3253 1940 3418 
Q 2278 3584 2650 3584 
Q 3113 3584 3367 3334 
Q 3622 3084 3622 2631 
Q 3622 2519 3608 2391 
Q 3594 2263 3566 2113 
z
" transform="scale(0.015625)"/>
      <path id="DejaVuSans-Oblique-5a" d="M 838 4666 
L 4500 4666 
L 4409 4184 
L 794 531 
L 3769 531 
L 3669 0 
L -141 0 
L -50 481 
L 3566 4134 
L 738 4134 
L 838 4666 
z
" transform="scale(0.015625)"/>
     </defs>
     <use xlink:href="#DejaVuSans-Oblique-54"/>
     <use xlink:href="#DejaVuSans-Oblique-68" x="61.083984"/>
     <use xlink:href="#DejaVuSans-Oblique-65" x="124.462891"/>
     <use xlink:href="#DejaVuSans-Oblique-20" x="185.986328"/>
     <use xlink:href="#DejaVuSans-Oblique-44" x="217.773438"/>
     <use xlink:href="#DejaVuSans-Oblique-65" x="294.775391"/>
     <use xlink:href="#DejaVuSans-Oblique-73" x="356.298828"/>
     <use xlink:href="#DejaVuSans-Oblique-74" x="408.398438"/>
     <use xlink:href="#DejaVuSans-Oblique-72" x="447.607422"/>
     <use xlink:href="#DejaVuSans-Oblique-75" x="488.720703"/>
     <use xlink:href="#DejaVuSans-Oblique-63" x="552.099609"/>
     <use xlink:href="#DejaVuSans-Oblique-74" x="607.080078"/>
     <use xlink:href="#DejaVuSans-Oblique-69" x="646.289062"/>
     <use xlink:href="#DejaVuSans-Oblique-6f" x="674.072266"/>
     <use xlink:href="#DejaVuSans-Oblique-6e" x="735.253906"/>
     <use xlink:href="#DejaVuSans-Oblique-20" x="798.632812"/>
     <use xlink:href="#DejaVuSans-Oblique-5a" x="830.419922"/>
     <use xlink:href="#DejaVuSans-Oblique-6f" x="898.925781"/>
     <use xlink:href="#DejaVuSans-Oblique-6e" x="960.107422"/>
     <use xlink:href="#DejaVuSans-Oblique-65" x="1023.486328"/>
    </g>
   </g>
   <g id="text_6">
    <!-- $C(\mathbf{B})$ -->
    <g style="fill: #006400" transform="translate(344.245 203.1421) scale(0.11 -0.11)">
     <defs>
      <path id="Cmmi10-43" d="M 934 1381 
Q 934 997 1082 705 
Q 1231 413 1514 248 
Q 1797 84 2181 84 
Q 2584 84 2957 290 
Q 3331 497 3595 842 
Q 3859 1188 3956 1575 
Q 3969 1613 4006 1613 
L 4084 1613 
Q 4109 1613 4125 1595 
Q 4141 1578 4141 1556 
Q 4141 1550 4134 1538 
Q 4025 1094 3711 705 
Q 3397 316 2959 87 
Q 2522 -141 2059 -141 
Q 1559 -141 1162 84 
Q 766 309 545 709 
Q 325 1109 325 1613 
Q 325 2150 565 2676 
Q 806 3203 1212 3614 
Q 1619 4025 2139 4269 
Q 2659 4513 3194 4513 
Q 3406 4513 3600 4448 
Q 3794 4384 3959 4253 
Q 4125 4122 4231 3950 
L 4738 4500 
Q 4738 4513 4769 4513 
L 4806 4513 
Q 4831 4513 4847 4491 
Q 4863 4469 4863 4447 
L 4428 2719 
Q 4428 2675 4378 2675 
L 4263 2675 
Q 4213 2675 4213 2747 
Q 4238 2888 4238 3084 
Q 4238 3397 4131 3673 
Q 4025 3950 3801 4119 
Q 3578 4288 3256 4288 
Q 2734 4288 2300 4025 
Q 1866 3763 1564 3336 
Q 1263 2909 1098 2389 
Q 934 1869 934 1381 
z
" transform="scale(0.015625)"/>
      <path id="Cmb10-42" d="M 219 0 
L 219 325 
L 819 325 
L 819 4063 
L 219 4063 
L 219 4391 
L 2631 4391 
Q 2991 4391 3306 4270 
Q 3622 4150 3817 3898 
Q 4013 3647 4013 3278 
Q 4013 2888 3752 2636 
Q 3491 2384 3078 2297 
Q 3559 2238 3871 1952 
Q 4184 1666 4184 1197 
Q 4184 625 3789 312 
Q 3394 0 2809 0 
L 219 0 
z
M 1684 325 
L 2631 325 
Q 2838 325 2970 459 
Q 3103 594 3161 794 
Q 3219 994 3219 1197 
Q 3219 1384 3178 1606 
Q 3138 1828 3025 1992 
Q 2913 2156 2719 2156 
L 1684 2156 
L 1684 325 
z
M 1684 2413 
L 2450 2413 
Q 2766 2413 2922 2677 
Q 3078 2941 3078 3278 
Q 3078 3569 2978 3816 
Q 2878 4063 2631 4063 
L 1684 4063 
L 1684 2413 
z
" transform="scale(0.015625)"/>
     </defs>
     <use xlink:href="#Cmmi10-43"/>
     <use xlink:href="#Cmr10-28" transform="translate(71.386719 0)"/>
     <use xlink:href="#Cmb10-42" transform="translate(110.205078 0)"/>
     <use xlink:href="#Cmr10-29" transform="translate(181.298828 0)"/>
    </g>
   </g>
   <g id="text_7">
    <!-- $\mathbf{x}$ -->
    <g transform="translate(126.552 197.0198) scale(0.12 -0.12)">
     <defs>
      <path id="Cmb10-78" d="M 109 0 
L 109 325 
Q 628 325 678 384 
L 1381 1350 
L 588 2516 
L 141 2516 
L 141 2841 
L 1606 2841 
L 1606 2516 
L 1331 2516 
L 1766 1881 
L 2181 2463 
Q 2181 2491 2072 2503 
Q 1963 2516 1888 2516 
L 1888 2841 
L 3156 2841 
L 3156 2516 
Q 2638 2516 2584 2456 
L 1959 1594 
L 2816 325 
L 3272 325 
L 3272 0 
L 1797 0 
L 1797 325 
L 2075 325 
L 1575 1063 
L 1081 378 
Q 1081 356 1193 340 
Q 1306 325 1381 325 
L 1381 0 
L 109 0 
z
" transform="scale(0.015625)"/>
     </defs>
     <use xlink:href="#Cmb10-78" transform="translate(0 0.609375)"/>
    </g>
   </g>
   <g id="patch_7">
    <path d="M 162.840384 191.043047 
Q 244.655205 197.019742 324.797433 202.874252 
" style="fill: none; stroke: #000000; stroke-width: 1.5; stroke-linecap: round"/>
    <path d="M 320.953778 200.588138 
L 324.797433 202.874252 
L 320.662349 204.577507 
" style="fill: none; stroke: #000000; stroke-width: 1.5; stroke-linecap: round"/>
   </g>
   <g id="text_8">
    <!-- $\mathbf{B}$ -->
    <g transform="translate(246.6 184.7752) scale(0.14 -0.14)">
     <use xlink:href="#Cmb10-42" transform="translate(0 0.390625)"/>
    </g>
   </g>
   <g id="text_9">
    <!-- $\mathbf{0}$ -->
    <g transform="translate(579.888 190.8975) scale(0.12 -0.12)">
     <defs>
      <path id="Cmr10-30" d="M 1600 -141 
Q 816 -141 533 504 
Q 250 1150 250 2041 
Q 250 2597 351 3087 
Q 453 3578 754 3920 
Q 1056 4263 1600 4263 
Q 2022 4263 2290 4056 
Q 2559 3850 2700 3523 
Q 2841 3197 2892 2823 
Q 2944 2450 2944 2041 
Q 2944 1491 2842 1011 
Q 2741 531 2444 195 
Q 2147 -141 1600 -141 
z
M 1600 25 
Q 1956 25 2131 390 
Q 2306 756 2347 1200 
Q 2388 1644 2388 2144 
Q 2388 2625 2347 3031 
Q 2306 3438 2132 3767 
Q 1959 4097 1600 4097 
Q 1238 4097 1063 3765 
Q 888 3434 847 3029 
Q 806 2625 806 2144 
Q 806 1788 823 1472 
Q 841 1156 916 820 
Q 991 484 1158 254 
Q 1325 25 1600 25 
z
" transform="scale(0.015625)"/>
     </defs>
     <use xlink:href="#Cmr10-30" transform="translate(0 0.390625)"/>
    </g>
   </g>
   <g id="patch_8">
    <path d="M 400.29681 202.983288 
Q 475.127039 197.019877 548.285517 191.189691 
" style="fill: none; stroke: #000000; stroke-width: 1.5; stroke-linecap: round"/>
    <path d="M 544.139277 189.513775 
L 548.285517 191.189691 
L 544.45704 193.501133 
" style="fill: none; stroke: #000000; stroke-width: 1.5; stroke-linecap: round"/>
   </g>
   <g id="text_10">
    <!-- $\mathbf{A}$ -->
    <g transform="translate(455.84 184.7752) scale(0.14 -0.14)">
     <use xlink:href="#Cmb10-41" transform="translate(0 0.171875)"/>
    </g>
   </g>
   <g id="text_11">
    <!-- Geometric Intuition: $\mathbf{A}\mathbf{B}=\mathbf{O} \Rightarrow C(\mathbf{B}) \subseteq N(\mathbf{A})$ -->
    <g transform="translate(211.43 17.84) scale(0.14 -0.14)">
     <defs>
      <path id="DejaVuSans-47" d="M 3809 666 
L 3809 1919 
L 2778 1919 
L 2778 2438 
L 4434 2438 
L 4434 434 
Q 4069 175 3628 42 
Q 3188 -91 2688 -91 
Q 1594 -91 976 548 
Q 359 1188 359 2328 
Q 359 3472 976 4111 
Q 1594 4750 2688 4750 
Q 3144 4750 3555 4637 
Q 3966 4525 4313 4306 
L 4313 3634 
Q 3963 3931 3569 4081 
Q 3175 4231 2741 4231 
Q 1884 4231 1454 3753 
Q 1025 3275 1025 2328 
Q 1025 1384 1454 906 
Q 1884 428 2741 428 
Q 3075 428 3337 486 
Q 3600 544 3809 666 
z
" transform="scale(0.015625)"/>
      <path id="DejaVuSans-65" d="M 3597 1894 
L 3597 1613 
L 953 1613 
Q 991 1019 1311 708 
Q 1631 397 2203 397 
Q 2534 397 2845 478 
Q 3156 559 3463 722 
L 3463 178 
Q 3153 47 2828 -22 
Q 2503 -91 2169 -91 
Q 1331 -91 842 396 
Q 353 884 353 1716 
Q 353 2575 817 3079 
Q 1281 3584 2069 3584 
Q 2775 3584 3186 3129 
Q 3597 2675 3597 1894 
z
M 3022 2063 
Q 3016 2534 2758 2815 
Q 2500 3097 2075 3097 
Q 1594 3097 1305 2825 
Q 1016 2553 972 2059 
L 3022 2063 
z
" transform="scale(0.015625)"/>
      <path id="DejaVuSans-6f" d="M 1959 3097 
Q 1497 3097 1228 2736 
Q 959 2375 959 1747 
Q 959 1119 1226 758 
Q 1494 397 1959 397 
Q 2419 397 2687 759 
Q 2956 1122 2956 1747 
Q 2956 2369 2687 2733 
Q 2419 3097 1959 3097 
z
M 1959 3584 
Q 2709 3584 3137 3096 
Q 3566 2609 3566 1747 
Q 3566 888 3137 398 
Q 2709 -91 1959 -91 
Q 1206 -91 779 398 
Q 353 888 353 1747 
Q 353 2609 779 3096 
Q 1206 3584 1959 3584 
z
" transform="scale(0.015625)"/>
      <path id="DejaVuSans-6d" d="M 3328 2828 
Q 3544 3216 3844 3400 
Q 4144 3584 4550 3584 
Q 5097 3584 5394 3201 
Q 5691 2819 5691 2113 
L 5691 0 
L 5113 0 
L 5113 2094 
Q 5113 2597 4934 2840 
Q 4756 3084 4391 3084 
Q 3944 3084 3684 2787 
Q 3425 2491 3425 1978 
L 3425 0 
L 2847 0 
L 2847 2094 
Q 2847 2600 2669 2842 
Q 2491 3084 2119 3084 
Q 1678 3084 1418 2786 
Q 1159 2488 1159 1978 
L 1159 0 
L 581 0 
L 581 3500 
L 1159 3500 
L 1159 2956 
Q 1356 3278 1631 3431 
Q 1906 3584 2284 3584 
Q 2666 3584 2933 3390 
Q 3200 3197 3328 2828 
z
" transform="scale(0.015625)"/>
      <path id="DejaVuSans-74" d="M 1172 4494 
L 1172 3500 
L 2356 3500 
L 2356 3053 
L 1172 3053 
L 1172 1153 
Q 1172 725 1289 603 
Q 1406 481 1766 481 
L 2356 481 
L 2356 0 
L 1766 0 
Q 1100 0 847 248 
Q 594 497 594 1153 
L 594 3053 
L 172 3053 
L 172 3500 
L 594 3500 
L 594 4494 
L 1172 4494 
z
" transform="scale(0.015625)"/>
      <path id="DejaVuSans-72" d="M 2631 2963 
Q 2534 3019 2420 3045 
Q 2306 3072 2169 3072 
Q 1681 3072 1420 2755 
Q 1159 2438 1159 1844 
L 1159 0 
L 581 0 
L 581 3500 
L 1159 3500 
L 1159 2956 
Q 1341 3275 1631 3429 
Q 1922 3584 2338 3584 
Q 2397 3584 2469 3576 
Q 2541 3569 2628 3553 
L 2631 2963 
z
" transform="scale(0.015625)"/>
      <path id="DejaVuSans-69" d="M 603 3500 
L 1178 3500 
L 1178 0 
L 603 0 
L 603 3500 
z
M 603 4863 
L 1178 4863 
L 1178 4134 
L 603 4134 
L 603 4863 
z
" transform="scale(0.015625)"/>
      <path id="DejaVuSans-63" d="M 3122 3366 
L 3122 2828 
Q 2878 2963 2633 3030 
Q 2388 3097 2138 3097 
Q 1578 3097 1268 2742 
Q 959 2388 959 1747 
Q 959 1106 1268 751 
Q 1578 397 2138 397 
Q 2388 397 2633 464 
Q 2878 531 3122 666 
L 3122 134 
Q 2881 22 2623 -34 
Q 2366 -91 2075 -91 
Q 1284 -91 818 406 
Q 353 903 353 1747 
Q 353 2603 823 3093 
Q 1294 3584 2113 3584 
Q 2378 3584 2631 3529 
Q 2884 3475 3122 3366 
z
" transform="scale(0.015625)"/>
      <path id="DejaVuSans-20" transform="scale(0.015625)"/>
      <path id="DejaVuSans-49" d="M 628 4666 
L 1259 4666 
L 1259 0 
L 628 0 
L 628 4666 
z
" transform="scale(0.015625)"/>
      <path id="DejaVuSans-6e" d="M 3513 2113 
L 3513 0 
L 2938 0 
L 2938 2094 
Q 2938 2591 2744 2837 
Q 2550 3084 2163 3084 
Q 1697 3084 1428 2787 
Q 1159 2491 1159 1978 
L 1159 0 
L 581 0 
L 581 3500 
L 1159 3500 
L 1159 2956 
Q 1366 3272 1645 3428 
Q 1925 3584 2291 3584 
Q 2894 3584 3203 3211 
Q 3513 2838 3513 2113 
z
" transform="scale(0.015625)"/>
      <path id="DejaVuSans-75" d="M 544 1381 
L 544 3500 
L 1119 3500 
L 1119 1403 
Q 1119 906 1312 657 
Q 1506 409 1894 409 
Q 2359 409 2629 706 
Q 2900 1003 2900 1516 
L 2900 3500 
L 3475 3500 
L 3475 0 
L 2900 0 
L 2900 538 
Q 2691 219 2414 64 
Q 2138 -91 1772 -91 
Q 1169 -91 856 284 
Q 544 659 544 1381 
z
M 1991 3584 
L 1991 3584 
z
" transform="scale(0.015625)"/>
      <path id="DejaVuSans-3a" d="M 750 794 
L 1409 794 
L 1409 0 
L 750 0 
L 750 794 
z
M 750 3309 
L 1409 3309 
L 1409 2516 
L 750 2516 
L 750 3309 
z
" transform="scale(0.015625)"/>
      <path id="Cmr10-3d" d="M 481 850 
Q 428 850 393 890 
Q 359 931 359 978 
Q 359 1031 393 1068 
Q 428 1106 481 1106 
L 4500 1106 
Q 4547 1106 4581 1068 
Q 4616 1031 4616 978 
Q 4616 931 4581 890 
Q 4547 850 4500 850 
L 481 850 
z
M 481 2094 
Q 428 2094 393 2131 
Q 359 2169 359 2222 
Q 359 2269 393 2309 
Q 428 2350 481 2350 
L 4500 2350 
Q 4547 2350 4581 2309 
Q 4616 2269 4616 2222 
Q 4616 2169 4581 2131 
Q 4547 2094 4500 2094 
L 481 2094 
z
" transform="scale(0.015625)"/>
      <path id="Cmb10-4f" d="M 2400 -72 
Q 1919 -72 1541 97 
Q 1163 266 894 577 
Q 625 888 492 1297 
Q 359 1706 359 2169 
Q 359 2803 593 3328 
Q 828 3853 1287 4156 
Q 1747 4459 2400 4459 
Q 3050 4459 3508 4156 
Q 3966 3853 4200 3328 
Q 4434 2803 4434 2169 
Q 4434 1534 4196 1025 
Q 3959 516 3496 222 
Q 3034 -72 2400 -72 
z
M 1600 769 
Q 1725 531 1937 378 
Q 2150 225 2400 225 
Q 2566 225 2720 298 
Q 2875 372 2997 495 
Q 3119 619 3194 769 
Q 3347 1081 3389 1422 
Q 3431 1763 3431 2284 
Q 3431 2763 3389 3077 
Q 3347 3391 3194 3675 
Q 3113 3825 2989 3937 
Q 2866 4050 2709 4114 
Q 2553 4178 2400 4178 
Q 2150 4178 1939 4039 
Q 1728 3900 1600 3675 
Q 1494 3488 1441 3252 
Q 1388 3016 1375 2808 
Q 1363 2600 1363 2284 
Q 1363 1938 1375 1711 
Q 1388 1484 1441 1229 
Q 1494 975 1600 769 
z
" transform="scale(0.015625)"/>
      <path id="Cmsy10-29" d="M 481 850 
Q 428 850 393 890 
Q 359 931 359 978 
Q 359 1031 393 1068 
Q 428 1106 481 1106 
L 4634 1106 
Q 5009 1416 5453 1600 
Q 5009 1784 4634 2094 
L 481 2094 
Q 428 2094 393 2131 
Q 359 2169 359 2222 
Q 359 2269 393 2309 
Q 428 2350 481 2350 
L 4353 2350 
Q 4194 2516 3950 2850 
Q 3706 3184 3706 3291 
Q 3706 3319 3723 3339 
Q 3741 3359 3769 3359 
L 3897 3359 
Q 3938 3359 3950 3322 
Q 4109 3009 4314 2750 
Q 4519 2491 4787 2272 
Q 5056 2053 5353 1906 
Q 5650 1759 5991 1672 
Q 6034 1644 6034 1600 
Q 6034 1550 5991 1538 
Q 5325 1369 4792 934 
Q 4259 500 3950 -122 
Q 3938 -159 3897 -159 
L 3769 -159 
Q 3706 -159 3706 -91 
Q 3706 -16 3832 179 
Q 3959 375 4111 567 
Q 4263 759 4353 850 
L 481 850 
z
" transform="scale(0.015625)"/>
      <path id="Cmsy10-b5" d="M 781 -878 
Q 728 -878 693 -837 
Q 659 -797 659 -750 
Q 659 -697 693 -659 
Q 728 -622 781 -622 
L 4325 -622 
Q 4375 -622 4408 -659 
Q 4441 -697 4441 -750 
Q 4441 -797 4408 -837 
Q 4375 -878 4325 -878 
L 781 -878 
z
M 531 2222 
Q 531 2734 800 3157 
Q 1069 3581 1519 3826 
Q 1969 4072 2478 4072 
L 4325 4072 
Q 4375 4072 4408 4031 
Q 4441 3991 4441 3944 
Q 4441 3891 4408 3853 
Q 4375 3816 4325 3816 
L 2497 3816 
Q 2163 3816 1856 3700 
Q 1550 3584 1304 3364 
Q 1059 3144 923 2855 
Q 788 2566 788 2222 
Q 788 1878 923 1589 
Q 1059 1300 1304 1078 
Q 1550 856 1856 739 
Q 2163 622 2497 622 
L 4325 622 
Q 4375 622 4408 581 
Q 4441 541 4441 494 
Q 4441 441 4408 403 
Q 4375 366 4325 366 
L 2478 366 
Q 1969 366 1519 609 
Q 1069 853 800 1278 
Q 531 1703 531 2222 
z
" transform="scale(0.015625)"/>
     </defs>
     <use xlink:href="#DejaVuSans-47" transform="translate(0 0.015625)"/>
     <use xlink:href="#DejaVuSans-65" transform="translate(77.490234 0.015625)"/>
     <use xlink:href="#DejaVuSans-6f" transform="translate(139.013672 0.015625)"/>
     <use xlink:href="#DejaVuSans-6d" transform="translate(200.195312 0.015625)"/>
     <use xlink:href="#DejaVuSans-65" transform="translate(297.607422 0.015625)"/>
     <use xlink:href="#DejaVuSans-74" transform="translate(359.130859 0.015625)"/>
     <use xlink:href="#DejaVuSans-72" transform="translate(398.339844 0.015625)"/>
     <use xlink:href="#DejaVuSans-69" transform="translate(439.453125 0.015625)"/>
     <use xlink:href="#DejaVuSans-63" transform="translate(467.236328 0.015625)"/>
     <use xlink:href="#DejaVuSans-20" transform="translate(522.216797 0.015625)"/>
     <use xlink:href="#DejaVuSans-49" transform="translate(554.003906 0.015625)"/>
     <use xlink:href="#DejaVuSans-6e" transform="translate(583.496094 0.015625)"/>
     <use xlink:href="#DejaVuSans-74" transform="translate(646.875 0.015625)"/>
     <use xlink:href="#DejaVuSans-75" transform="translate(686.083984 0.015625)"/>
     <use xlink:href="#DejaVuSans-69" transform="translate(749.462891 0.015625)"/>
     <use xlink:href="#DejaVuSans-74" transform="translate(777.246094 0.015625)"/>
     <use xlink:href="#DejaVuSans-69" transform="translate(816.455078 0.015625)"/>
     <use xlink:href="#DejaVuSans-6f" transform="translate(844.238281 0.015625)"/>
     <use xlink:href="#DejaVuSans-6e" transform="translate(905.419922 0.015625)"/>
     <use xlink:href="#DejaVuSans-3a" transform="translate(968.798828 0.015625)"/>
     <use xlink:href="#DejaVuSans-20" transform="translate(1002.490234 0.015625)"/>
     <use xlink:href="#Cmb10-41" transform="translate(1034.277344 0.015625)"/>
     <use xlink:href="#Cmb10-42" transform="translate(1109.765625 0.015625)"/>
     <use xlink:href="#Cmr10-3d" transform="translate(1198.417969 0.015625)"/>
     <use xlink:href="#Cmb10-4f" transform="translate(1293.662109 0.015625)"/>
     <use xlink:href="#Cmsy10-29" transform="translate(1386.220703 0.015625)"/>
     <use xlink:href="#Cmmi10-43" transform="translate(1503.779297 0.015625)"/>
     <use xlink:href="#Cmr10-28" transform="translate(1575.166016 0.015625)"/>
     <use xlink:href="#Cmb10-42" transform="translate(1613.984375 0.015625)"/>
     <use xlink:href="#Cmr10-29" transform="translate(1685.078125 0.015625)"/>
     <use xlink:href="#Cmsy10-b5" transform="translate(1741.455078 0.015625)"/>
     <use xlink:href="#Cmmi10-4e" transform="translate(1836.699219 0.015625)"/>
     <use xlink:href="#Cmr10-28" transform="translate(1917.021484 0.015625)"/>
     <use xlink:href="#Cmb10-41" transform="translate(1955.839844 0.015625)"/>
     <use xlink:href="#Cmr10-29" transform="translate(2031.328125 0.015625)"/>
    </g>
   </g>
  </g>
 </g>
 <defs>
  <clipPath id="p6ac86fac95">
   <rect x="7.2" y="37.84" width="698.4" height="306.115"/>
  </clipPath>
 </defs>
</svg>
